<svg xmlns="http://www.w3.org/2000/svg" xmlns:xlink="http://www.w3.org/1999/xlink" width="1920" height="1080" viewBox="0 0 1920 1080"><defs><clipPath id="b"><rect width="1920" height="1080"/></clipPath></defs><g id="a" clip-path="url(#b)"><path d="M0,120.176,1920-164.312V308H0Z" transform="translate(0 772)" fill="#c3c3c3"/><path d="M0,285H0C482.879,213.323,1919.573.559,1919.573.559" transform="translate(0.5 607.5)" fill="none" stroke="#000" stroke-width="1.25"/><g transform="translate(-0.104 -20)"><ellipse cx="207.013" cy="52.814" rx="207.013" ry="52.814" transform="translate(752.987 799.409)"/><ellipse cx="207.013" cy="52.814" rx="207.013" ry="52.814" transform="translate(752.987 791.019)" fill="#fff" stroke="#000" stroke-miterlimit="10" stroke-width="1.939"/><path d="M1047.144,713.353a8.634,8.634,0,0,0,0,1.39c0,10.824-40.87,19.6-91.283,19.6s-91.283-8.775-91.283-19.6a8.741,8.741,0,0,0,0-1.39V638.889h182.566Z" transform="translate(7.505 121.49)" fill="#6652e4" stroke="#000" stroke-miterlimit="10" stroke-width="2"/></g><rect width="599.793" height="440.379" transform="translate(660 320)" fill="#fff" stroke="#000" stroke-miterlimit="10" stroke-width="1.848"/><rect width="494.607" height="344.163" transform="translate(712.166 368.302)" fill="#f1d624" stroke="#000" stroke-miterlimit="10" stroke-width="1.848"/><line y2="343" transform="translate(722.344 368.774)" fill="none" stroke="#707070" stroke-width="0.25" opacity="0.25"/><line y2="343" transform="translate(730.345 368.774)" fill="none" stroke="#707070" stroke-width="0.25" opacity="0.25"/><line y2="343" transform="translate(739.345 368.774)" fill="none" stroke="#707070" stroke-width="0.25" opacity="0.25"/><line y2="343" transform="translate(747.344 368.774)" fill="none" stroke="#707070" stroke-width="0.25" opacity="0.25"/><line y2="343" transform="translate(756.344 368.774)" fill="none" stroke="#707070" stroke-width="0.25" opacity="0.25"/><line y2="343" transform="translate(764.344 368.774)" fill="none" stroke="#707070" stroke-width="0.25" opacity="0.25"/><line y2="343" transform="translate(773.345 368.774)" fill="none" stroke="#707070" stroke-width="0.25" opacity="0.25"/><line y2="343" transform="translate(781.345 368.774)" fill="none" stroke="#707070" stroke-width="0.25" opacity="0.25"/><line y2="343" transform="translate(790.345 368.774)" fill="none" stroke="#707070" stroke-width="0.25" opacity="0.25"/><line y2="343" transform="translate(798.345 368.774)" fill="none" stroke="#707070" stroke-width="0.25" opacity="0.25"/><line y2="343" transform="translate(807.345 368.774)" fill="none" stroke="#707070" stroke-width="0.25" opacity="0.25"/><line y2="343" transform="translate(815.345 368.774)" fill="none" stroke="#707070" stroke-width="0.25" opacity="0.25"/><line y2="343" transform="translate(824.345 368.774)" fill="none" stroke="#707070" stroke-width="0.25" opacity="0.25"/><line y2="343" transform="translate(832.344 368.774)" fill="none" stroke="#707070" stroke-width="0.25" opacity="0.25"/><line y2="343" transform="translate(841.344 368.774)" fill="none" stroke="#707070" stroke-width="0.25" opacity="0.25"/><line y2="343" transform="translate(849.344 368.774)" fill="none" stroke="#707070" stroke-width="0.25" opacity="0.25"/><line y2="343" transform="translate(858.344 368.774)" fill="none" stroke="#707070" stroke-width="0.25" opacity="0.25"/><line y2="343" transform="translate(866.344 368.774)" fill="none" stroke="#707070" stroke-width="0.25" opacity="0.25"/><line y2="343" transform="translate(875.344 368.774)" fill="none" stroke="#707070" stroke-width="0.25" opacity="0.25"/><line y2="343" transform="translate(883.344 368.774)" fill="none" stroke="#707070" stroke-width="0.25" opacity="0.25"/><line y2="343" transform="translate(892.344 368.774)" fill="none" stroke="#707070" stroke-width="0.25" opacity="0.25"/><line y2="343" transform="translate(900.344 368.774)" fill="none" stroke="#707070" stroke-width="0.25" opacity="0.25"/><line y2="343" transform="translate(909.344 368.774)" fill="none" stroke="#707070" stroke-width="0.25" opacity="0.25"/><line y2="343" transform="translate(917.344 368.774)" fill="none" stroke="#707070" stroke-width="0.25" opacity="0.25"/><line y2="343" transform="translate(926.344 368.774)" fill="none" stroke="#707070" stroke-width="0.25" opacity="0.25"/><line y2="343" transform="translate(934.344 368.774)" fill="none" stroke="#707070" stroke-width="0.25" opacity="0.25"/><line y2="343" transform="translate(943.345 368.774)" fill="none" stroke="#707070" stroke-width="0.25" opacity="0.25"/><line y2="343" transform="translate(951.345 368.774)" fill="none" stroke="#707070" stroke-width="0.25" opacity="0.25"/><line y2="343" transform="translate(960.345 368.774)" fill="none" stroke="#707070" stroke-width="0.25" opacity="0.25"/><line y2="343" transform="translate(968.345 368.774)" fill="none" stroke="#707070" stroke-width="0.25" opacity="0.25"/><line y2="343" transform="translate(977.345 368.774)" fill="none" stroke="#707070" stroke-width="0.25" opacity="0.25"/><line y2="343" transform="translate(985.345 368.774)" fill="none" stroke="#707070" stroke-width="0.25" opacity="0.25"/><line y2="343" transform="translate(994.345 368.774)" fill="none" stroke="#707070" stroke-width="0.25" opacity="0.25"/><line y2="343" transform="translate(1002.345 368.774)" fill="none" stroke="#707070" stroke-width="0.25" opacity="0.25"/><line y2="343" transform="translate(1011.345 368.774)" fill="none" stroke="#707070" stroke-width="0.25" opacity="0.25"/><line y2="343" transform="translate(1019.345 368.774)" fill="none" stroke="#707070" stroke-width="0.25" opacity="0.25"/><line y2="343" transform="translate(1028.345 368.774)" fill="none" stroke="#707070" stroke-width="0.25" opacity="0.25"/><line y2="343" transform="translate(1036.345 368.774)" fill="none" stroke="#707070" stroke-width="0.25" opacity="0.25"/><line y2="343" transform="translate(1045.345 368.774)" fill="none" stroke="#707070" stroke-width="0.25" opacity="0.25"/><line y2="343" transform="translate(1053.345 368.774)" fill="none" stroke="#707070" stroke-width="0.25" opacity="0.25"/><line y2="343" transform="translate(1062.345 368.774)" fill="none" stroke="#707070" stroke-width="0.25" opacity="0.25"/><line y2="343" transform="translate(1070.345 368.774)" fill="none" stroke="#707070" stroke-width="0.25" opacity="0.25"/><line y2="343" transform="translate(1079.345 368.774)" fill="none" stroke="#707070" stroke-width="0.25" opacity="0.25"/><line y2="343" transform="translate(1087.345 368.774)" fill="none" stroke="#707070" stroke-width="0.25" opacity="0.25"/><line y2="343" transform="translate(1096.345 368.774)" fill="none" stroke="#707070" stroke-width="0.25" opacity="0.25"/><line y2="343" transform="translate(1104.345 368.774)" fill="none" stroke="#707070" stroke-width="0.25" opacity="0.25"/><line y2="343" transform="translate(1113.345 368.774)" fill="none" stroke="#707070" stroke-width="0.25" opacity="0.25"/><line y2="343" transform="translate(1121.345 368.774)" fill="none" stroke="#707070" stroke-width="0.25" opacity="0.25"/><line y2="343" transform="translate(1130.345 368.774)" fill="none" stroke="#707070" stroke-width="0.25" opacity="0.25"/><line y2="343" transform="translate(1138.345 368.774)" fill="none" stroke="#707070" stroke-width="0.25" opacity="0.25"/><line y2="343" transform="translate(1147.345 368.774)" fill="none" stroke="#707070" stroke-width="0.25" opacity="0.25"/><line y2="343" transform="translate(1155.345 368.774)" fill="none" stroke="#707070" stroke-width="0.25" opacity="0.25"/><line y2="343" transform="translate(1164.344 368.774)" fill="none" stroke="#707070" stroke-width="0.25" opacity="0.25"/><line y2="343" transform="translate(1172.344 368.774)" fill="none" stroke="#707070" stroke-width="0.25" opacity="0.25"/><line y2="343" transform="translate(1181.344 368.774)" fill="none" stroke="#707070" stroke-width="0.25" opacity="0.25"/><line y2="343" transform="translate(1189.344 368.774)" fill="none" stroke="#707070" stroke-width="0.25" opacity="0.25"/><line y2="343" transform="translate(1198.344 368.774)" fill="none" stroke="#707070" stroke-width="0.25" opacity="0.25"/><line x1="494.607" transform="translate(712.553 376.416)" fill="none" stroke="#707070" stroke-width="0.25" opacity="0.25"/><line x1="494.607" transform="translate(712.553 384.917)" fill="none" stroke="#707070" stroke-width="0.25" opacity="0.25"/><line x1="494.607" transform="translate(712.553 393.418)" fill="none" stroke="#707070" stroke-width="0.25" opacity="0.25"/><line x1="494.607" transform="translate(712.553 401.919)" fill="none" stroke="#707070" stroke-width="0.25" opacity="0.25"/><line x1="494.607" transform="translate(712.553 410.42)" fill="none" stroke="#707070" stroke-width="0.25" opacity="0.25"/><line x1="494.607" transform="translate(712.553 418.921)" fill="none" stroke="#707070" stroke-width="0.25" opacity="0.25"/><line x1="494.607" transform="translate(712.553 427.423)" fill="none" stroke="#707070" stroke-width="0.25" opacity="0.25"/><line x1="494.607" transform="translate(712.553 435.924)" fill="none" stroke="#707070" stroke-width="0.25" opacity="0.25"/><line x1="494.607" transform="translate(712.553 444.425)" fill="none" stroke="#707070" stroke-width="0.25" opacity="0.25"/><line x1="494.607" transform="translate(712.553 452.926)" fill="none" stroke="#707070" stroke-width="0.25" opacity="0.25"/><line x1="494.607" transform="translate(712.553 461.427)" fill="none" stroke="#707070" stroke-width="0.25" opacity="0.25"/><line x1="494.607" transform="translate(712.553 469.928)" fill="none" stroke="#707070" stroke-width="0.25" opacity="0.25"/><line x1="494.607" transform="translate(712.553 478.429)" fill="none" stroke="#707070" stroke-width="0.25" opacity="0.25"/><line x1="494.607" transform="translate(712.553 486.93)" fill="none" stroke="#707070" stroke-width="0.25" opacity="0.25"/><line x1="494.607" transform="translate(712.553 495.431)" fill="none" stroke="#707070" stroke-width="0.25" opacity="0.25"/><line x1="494.607" transform="translate(712.553 503.932)" fill="none" stroke="#707070" stroke-width="0.25" opacity="0.25"/><line x1="494.607" transform="translate(712.553 512.433)" fill="none" stroke="#707070" stroke-width="0.25" opacity="0.25"/><line x1="494.607" transform="translate(712.553 520.934)" fill="none" stroke="#707070" stroke-width="0.25" opacity="0.25"/><line x1="494.607" transform="translate(712.553 529.435)" fill="none" stroke="#707070" stroke-width="0.25" opacity="0.25"/><line x1="494.607" transform="translate(712.553 537.936)" fill="none" stroke="#707070" stroke-width="0.25" opacity="0.25"/><line x1="494.607" transform="translate(712.553 546.438)" fill="none" stroke="#707070" stroke-width="0.25" opacity="0.25"/><line x1="494.607" transform="translate(712.553 554.938)" fill="none" stroke="#707070" stroke-width="0.25" opacity="0.25"/><line x1="494.607" transform="translate(712.553 563.439)" fill="none" stroke="#707070" stroke-width="0.25" opacity="0.25"/><line x1="494.607" transform="translate(712.553 571.94)" fill="none" stroke="#707070" stroke-width="0.25" opacity="0.25"/><line x1="494.607" transform="translate(712.553 580.442)" fill="none" stroke="#707070" stroke-width="0.25" opacity="0.25"/><line x1="494.607" transform="translate(712.553 588.943)" fill="none" stroke="#707070" stroke-width="0.25" opacity="0.25"/><line x1="494.607" transform="translate(712.553 597.444)" fill="none" stroke="#707070" stroke-width="0.25" opacity="0.25"/><line x1="494.607" transform="translate(712.553 605.945)" fill="none" stroke="#707070" stroke-width="0.25" opacity="0.25"/><line x1="494.607" transform="translate(712.553 614.446)" fill="none" stroke="#707070" stroke-width="0.25" opacity="0.25"/><line x1="494.607" transform="translate(712.553 622.947)" fill="none" stroke="#707070" stroke-width="0.25" opacity="0.25"/><line x1="494.607" transform="translate(712.553 631.448)" fill="none" stroke="#707070" stroke-width="0.25" opacity="0.25"/><line x1="494.607" transform="translate(712.553 639.949)" fill="none" stroke="#707070" stroke-width="0.25" opacity="0.25"/><line x1="494.607" transform="translate(712.553 648.45)" fill="none" stroke="#707070" stroke-width="0.25" opacity="0.25"/><line x1="494.607" transform="translate(712.553 656.951)" fill="none" stroke="#707070" stroke-width="0.25" opacity="0.25"/><line x1="494.607" transform="translate(712.553 665.452)" fill="none" stroke="#707070" stroke-width="0.25" opacity="0.25"/><line x1="494.607" transform="translate(712.553 673.953)" fill="none" stroke="#707070" stroke-width="0.25" opacity="0.25"/><line x1="494.607" transform="translate(712.553 682.454)" fill="none" stroke="#707070" stroke-width="0.25" opacity="0.25"/><line x1="494.607" transform="translate(712.553 690.955)" fill="none" stroke="#707070" stroke-width="0.25" opacity="0.25"/><line x1="494.607" transform="translate(712.553 699.457)" fill="none" stroke="#707070" stroke-width="0.25" opacity="0.25"/><line x1="494.607" transform="translate(712.553 707.958)" fill="none" stroke="#707070" stroke-width="0.25" opacity="0.25"/><rect width="495.001" height="10.329" transform="translate(711.646 701.38)"/><rect width="344.16" height="11.22" transform="translate(1206.647 368.549) rotate(90)"/><g transform="translate(5.442 1.488)"><ellipse cx="9.262" cy="9.262" rx="9.262" ry="9.262" transform="translate(1180.435 726.5)" fill="#6652e4" stroke="#000" stroke-miterlimit="10" stroke-width="1.25"/><ellipse cx="12.696" cy="12.696" rx="12.696" ry="12.696" transform="translate(1208.959 723.5)" fill="#f57474" stroke="#000" stroke-miterlimit="10" stroke-width="1.5"/></g><path d="M650.537,108,540,256.073V387.553L650.537,548.379" transform="translate(9.463 212)" fill="#4d45ba" stroke="#000" stroke-miterlimit="10" stroke-width="2"/><g transform="translate(-13293.689 -841.82)"><path d="M0,28.581l1.762-.093L.214,28.4,9.87,18.767l3.189,9.13,532-27.9,54.9,122.927,13.246-2.285-9.818,9.756-.8-1.592.753,1.686L54.564,159.71Z" transform="translate(14046.572 1739.508)" stroke="#000" stroke-linecap="round" stroke-linejoin="round" stroke-miterlimit="10" stroke-width="4"/><path d="M643.752,839.955l545.809-.016L1240.928,973.3l-549.549.457-47.626-133.8" transform="translate(13369.743 952.977) rotate(-3)" fill="#6652e4" stroke="#000" stroke-linecap="round" stroke-linejoin="round" stroke-miterlimit="10" stroke-width="4"/><path d="M643.752,840.955" transform="translate(13374.899 954.562) rotate(-3)" fill="#6652e4" stroke="#000" stroke-linecap="round" stroke-miterlimit="10" stroke-width="4"/><path d="M1136.6,1006.4H1008.691l-7.605-18.6H1129Z" transform="translate(13269.718 917.645) rotate(-3)" fill="#f57474" stroke="#000" stroke-linecap="round" stroke-linejoin="round" stroke-miterlimit="10" stroke-width="4"/><path d="M45.6,126.527l18.167-.951,7.109,15.7L51.67,142.28Zm31.681-1.66,18.167-.952,7.108,15.7L83.351,140.62Zm31.681-1.66,18.167-.952,7.108,15.7-19.207,1.007Zm31.681-1.66,18.167-.952,7.108,15.7L146.713,137.3Zm31.68-1.661,18.168-.952,7.108,15.7-19.207,1.006ZM204,118.226l35.3-1.849,7.375,15.684-35.707,1.871Zm190.084-9.961,18.167-.952,7.109,15.7-19.208,1.007Zm31.681-1.66,18.167-.952,7.109,15.7-19.208,1.007Zm31.681-1.66,18.167-.952,7.109,15.7L463.52,120.7Zm31.681-1.66,18.167-.952,7.108,15.7L495.2,119.036Zm-456.895-.312,18.168-.952,7.108,15.7-19.207,1.006Zm488.576-1.348,18.167-.951,7.108,15.7-19.207,1.007ZM63.918,101.31l18.168-.952,7.108,15.7-19.208,1.006Zm488.575-1.347,18.168-.952,7.108,15.7-19.207,1.007ZM95.6,99.651l18.167-.952,7.109,15.7L101.668,115.4Zm31.681-1.66,18.167-.952,7.108,15.7-19.207,1.007Zm31.681-1.66,18.167-.952,7.108,15.7-19.207,1.007Zm31.681-1.66,18.168-.952,7.108,15.7-19.207,1.006Zm31.681-1.66,18.168-.952,7.108,15.7-19.207,1.006ZM254,91.349l18.168-.952,7.108,15.7L260.072,107.1Zm31.681-1.661,18.168-.952,7.107,15.7-19.207,1.007Zm31.681-1.66,18.167-.952,7.108,15.7-19.207,1.006Zm31.681-1.66,18.167-.952,7.108,15.7-19.207,1.006Zm31.681-1.66,18.167-.952L406,99.454,386.8,100.46Zm31.681-1.66,18.167-.952,7.108,15.7L418.476,98.8Zm31.68-1.66,18.168-.952,7.108,15.7L450.157,97.14Zm31.681-1.66,18.167-.952,7.108,15.7-19.207,1.007ZM22.907,79.2l18.167-.952,7.108,15.7L28.976,94.955ZM507.45,78.066l18.167-.952,7.108,15.7-19.207,1.006ZM54.588,77.542l18.167-.952,7.108,15.7L60.656,93.295Zm484.543-1.137,18.167-.952,7.108,15.7L545.2,92.158ZM86.269,75.882l18.167-.952,7.108,15.7L92.337,91.634Zm31.68-1.66,18.168-.952,7.108,15.7-19.207,1.007Zm31.681-1.66,18.168-.952,7.108,15.7L155.7,88.314ZM181.31,70.9l18.167-.952,7.109,15.7-19.208,1.006Zm31.681-1.66,18.167-.952,7.108,15.7L219.06,84.993Zm31.681-1.66,18.167-.952,7.108,15.7-19.207,1.006Zm31.681-1.66,18.167-.952,7.108,15.7-19.207,1.007Zm31.68-1.66,18.168-.952,7.108,15.7L314.1,80.013Zm31.681-1.66,18.167-.952,7.109,15.7-19.208,1.007Zm31.681-1.66,18.167-.952,7.108,15.7-19.207,1.006Zm31.681-1.661,18.167-.952,7.108,15.7-19.207,1.006Zm31.681-1.66,18.167-.952,7.108,15.7-19.207,1.007Zm31.68-1.66,18.168-.952,7.108,15.7-19.208,1.007Zm31.681-1.66,18.168-.952,7.108,15.7-19.207,1.006ZM10.2,52.781l18.168-.952,7.108,15.7L16.27,68.534Zm519.6-.144,18.167-.952,7.109,15.7L535.867,68.39ZM41.882,51.121l18.167-.952,7.108,15.7L47.951,66.874ZM73.563,49.46l18.167-.952,7.108,15.7L79.632,65.213Zm31.681-1.66,18.167-.952,7.108,15.7-19.207,1.006Zm31.681-1.66,18.167-.952,7.108,15.7-19.207,1.007Zm31.68-1.66,18.168-.952,7.108,15.7-19.207,1.007Zm31.681-1.66,18.168-.952,7.108,15.7-19.208,1.006Zm31.681-1.66,18.167-.952,7.109,15.7-19.208,1.006Zm31.681-1.66,18.167-.952,7.108,15.7-19.207,1.006Zm31.681-1.66,18.167-.952,7.108,15.7L301.4,53.591Zm31.68-1.66,18.168-.952,7.108,15.7-19.207,1.007Zm31.681-1.66,18.168-.952,7.108,15.7L364.759,50.27Zm31.681-1.66,18.168-.952,7.108,15.7L396.439,48.61Zm31.681-1.66,18.167-.952,7.108,15.7L428.12,46.949Zm31.682-1.66,18.167-.952,7.108,15.7L459.8,45.29Zm31.681-1.66,18.167-.952,7.108,15.7-19.207,1.007ZM0,27.846l18.167-.952,7.109,15.7L6.069,43.6Zm517.1-1.63,18.167-.952,7.108,15.7-19.207,1.006ZM31.681,26.186l18.167-.952,7.108,15.7L37.75,41.938Zm31.681-1.66,18.167-.952,7.108,15.7L69.431,40.278Zm31.681-1.661,18.167-.952,7.108,15.7-19.207,1.006Zm31.682-1.66,18.167-.952L152,35.951l-19.207,1.007Zm31.68-1.66,18.168-.952,7.108,15.7L164.473,35.3Zm31.681-1.661,18.168-.952,7.108,15.7-19.208,1.007Zm31.681-1.66,18.167-.952,7.108,15.7-19.207,1.006Zm31.681-1.66,18.167-.952,7.108,15.7-19.207,1.006Zm31.681-1.66,18.167-.952,7.108,15.7L291.2,28.655Zm31.68-1.66,18.168-.952,7.108,15.7L322.878,27Zm31.681-1.661,18.168-.952,7.108,15.7-19.208,1.007ZM380.17,7.922l18.167-.952,7.109,15.7-19.208,1.006Zm31.681-1.661,18.167-.952,7.108,15.7L417.92,22.014ZM443.532,4.6,461.7,3.65l7.108,15.7L449.6,20.354Zm31.68-1.661,18.168-.952,7.108,15.7-19.207,1.007Zm31.682-1.66L525.061.329l7.108,15.7-19.207,1.007Z" transform="translate(14070.073 1737.537)" fill="#fff" stroke="#000" stroke-linecap="round" stroke-linejoin="round" stroke-miterlimit="10" stroke-width="4"/><path d="M679.514,864.224H660.281l-5.236-16.049h18.193Z" transform="translate(13371.536 952.652) rotate(-3)" fill="#f1d624" stroke="#000" stroke-linecap="round" stroke-linejoin="round" stroke-miterlimit="10" stroke-width="4"/></g><g transform="translate(-14161.52 -680)"><path d="M1629.529,974.367c-10.96,16.574-38.891,13.85-55.952-27.65-5.527-16.218-2.366-29.107,5.047-35.928,12.665-11.669,37.759-5.6,53.056,31.875C1635.912,955.891,1634.391,967.026,1629.529,974.367Z" transform="translate(14038.35 739.23)" stroke="#000" stroke-linecap="round" stroke-linejoin="round" stroke-miterlimit="10" stroke-width="5"/><path d="M1632.479,975.078c-12.58,11.642-37.017,5.918-52.5-31.741-4.568-13.4-3.2-24.528,1.59-31.837,12.665-11.669,43.338-1.1,58.636,36.367C1644.442,961.094,1637.342,967.737,1632.479,975.078Z" transform="translate(14035.4 738.519)" fill="#fff" stroke="#000" stroke-linecap="round" stroke-linejoin="round" stroke-miterlimit="10" stroke-width="5"/><path d="M1604.893,922.895A28.037,28.037,0,0,1,1617,934.065" transform="translate(14022.635 731.191)" fill="none" stroke="#fff" stroke-linecap="round" stroke-miterlimit="10" stroke-width="1"/><path d="M1606.344,923.482a58,58,0,0,1,10.3,12.566" transform="translate(14021.966 730.921)" fill="none" stroke="#000" stroke-linecap="round" stroke-miterlimit="10" stroke-width="1"/><path d="M1585.9,957.712c2.312,2.208,5.981,2.05,9.094,1.323,7.848-1.83,14.8-6.258,21.581-10.611,4.66-2.991,9.714-6.529,10.889-11.94" transform="translate(14031.386 724.932)" fill="none" stroke="#000" stroke-linecap="round" stroke-linejoin="round" stroke-miterlimit="10" stroke-width="1"/><path d="M1048.439,654.825a44.428,44.428,0,0,0,36.03,8.9c4.652-.927,9.394-2.619,14.013-1.533,3.468.815,6.407,3.107,9.228,5.34l22.022,17.426c4.095,3.24,8.374,6.57,13.423,7.671,9.732,2.121,19.012-4.441,28.6-7.162,14.7-4.169,30.383.857,44.066,7.782,28.193,14.27,51.825,36.391,74.8,58.474,6.649,6.391,13.4,12.894,21.534,17.076,5.454,2.805,11.417,4.5,16.719,7.6s10.1,8.1,10.81,14.339" transform="translate(14280.481 856.194)" fill="none" stroke="#000" stroke-linecap="round" stroke-linejoin="round" stroke-miterlimit="10" stroke-width="0.974"/></g><g transform="translate(-13706.639 -581.703)"><g transform="translate(14010.095 1360.142)"><path d="M275.757,837c0,21.239-25.833,38.463-57.695,38.463S160.368,858.236,160.368,837a25.635,25.635,0,0,1,.14-2.68c2.049,20,27.038,35.8,57.557,35.8s55.5-15.8,57.555-35.788A26.074,26.074,0,0,1,275.757,837Z" transform="translate(-160.367 -677.804)" stroke="#707070" stroke-linecap="round" stroke-linejoin="round" stroke-width="1"/><path d="M275.758,676.946V792.338a26.118,26.118,0,0,1-.137,2.671C273.562,815,248.575,830.8,218.065,830.8s-55.508-15.8-57.557-35.8a25.918,25.918,0,0,1-.137-2.661V676.946c0,7.746,3.437,14.959,9.347,21,.23.237.465.467.7.7,10.39,10.128,27.858,16.771,47.645,16.771s37.253-6.643,47.643-16.771c.237-.231.472-.461.7-.7C272.321,691.9,275.758,684.692,275.758,676.946Z" transform="translate(-160.368 -638.485)" fill="#c8ede9" stroke="#000" stroke-linecap="round" stroke-linejoin="round" stroke-miterlimit="10" stroke-width="2.849"/><path d="M218.061,625.675c-31.859,0-57.694,17.224-57.694,38.46,0,7.749,3.443,14.958,9.347,21,.233.24.465.465.705.7,10.39,10.127,27.861,16.773,47.642,16.773s37.253-6.646,47.65-16.773c.233-.232.465-.458.7-.7,5.911-6.039,9.347-13.248,9.347-21C275.755,642.9,249.92,625.675,218.061,625.675ZM266.634,671.1c-.06.2-.128.405-.2.6s-.128.375-.2.555c-.188.518-.405,1.035-.638,1.545-.1.232-.21.45-.323.675,0,.008-.007.015-.007.023-.113.225-.225.45-.345.668-.105.195-.21.39-.315.578-.06.1-.113.2-.165.293-.113.188-.225.375-.33.563-.083.128-.165.255-.248.39s-.18.278-.263.413a1.326,1.326,0,0,1-.12.165c-.09.135-.173.27-.263.4-.113.165-.225.33-.345.48-.2.277-.405.555-.615.833-.09.112-.18.233-.27.352-.105.128-.2.255-.308.383-.142.158-.27.323-.413.48-.278.338-.578.66-.878.99-.15.165-.308.33-.465.5s-.308.315-.465.473-.315.315-.48.473c-.563.548-1.155,1.08-1.763,1.605-.2.165-.39.33-.593.488-.218.18-.45.36-.675.54a46.037,46.037,0,0,1-6.886,4.464q-.371.2-.743.383c-.278.143-.563.285-.848.427q-1.7.833-3.518,1.568c-.263.113-.533.218-.8.323-1,.4-2.025.765-3.068,1.11-.263.09-.533.173-.8.255-.2.068-.413.135-.623.2s-.428.128-.638.188c-.533.157-1.073.307-1.613.45-.18.053-.36.1-.548.143-.51.135-1.028.263-1.545.375-.24.06-.48.112-.728.165-.158.038-.315.075-.473.1-.473.1-.945.2-1.418.285-.855.165-1.718.308-2.588.443-.353.052-.713.105-1.073.15-.015,0-.038.008-.06.008-.338.045-.675.09-1.013.128-1.748.218-3.518.36-5.326.45-.27.015-.54.023-.81.03-.285.015-.57.022-.848.03-.263.008-.518.008-.773.015-.383,0-.758.007-1.14.007s-.758-.007-1.133-.007c-.263-.008-.518-.008-.773-.015-.285-.008-.57-.015-.848-.03s-.548-.015-.818-.03c-1.133-.052-2.25-.135-3.361-.24-.255-.015-.5-.045-.758-.068l-.2-.022c-.338-.038-.668-.075-1.005-.12s-.683-.083-1.02-.128c-.023,0-.038-.008-.06-.008-.36-.045-.713-.1-1.073-.15-.3-.053-.6-.1-.893-.143-.585-.1-1.163-.2-1.74-.308-.18-.037-.353-.075-.533-.1-.278-.06-.555-.113-.84-.173l-.5-.112-.7-.158c-.465-.105-.923-.218-1.388-.33s-.938-.247-1.4-.375c-.3-.083-.608-.165-.908-.263-.218-.06-.428-.12-.645-.187s-.42-.128-.623-.2c-.225-.075-.458-.143-.683-.218-.66-.218-1.305-.435-1.943-.675-.247-.09-.5-.18-.75-.278-.2-.075-.405-.15-.608-.233-1.05-.413-2.063-.848-3.061-1.305-.2-.1-.405-.2-.6-.285s-.413-.2-.615-.293c-.263-.135-.525-.263-.773-.4s-.5-.248-.75-.383a46.423,46.423,0,0,1-6.886-4.464l-.675-.54c-.2-.157-.39-.323-.585-.488-.615-.525-1.2-1.058-1.763-1.605-.165-.158-.323-.315-.488-.473s-.308-.315-.465-.473-.308-.33-.465-.5c-.3-.33-.593-.653-.878-.99-.135-.158-.27-.323-.405-.48-.105-.128-.21-.255-.308-.383s-.188-.232-.278-.352c-.21-.278-.413-.555-.615-.833-.113-.15-.233-.315-.338-.48-.09-.128-.18-.263-.27-.4-.038-.053-.075-.1-.113-.165-.09-.135-.173-.278-.263-.413-.2-.315-.39-.63-.578-.953-.06-.1-.113-.2-.165-.293-.1-.188-.218-.383-.315-.578-.12-.218-.24-.443-.345-.668,0-.008-.008-.015-.015-.023-.105-.225-.218-.443-.315-.675-.24-.51-.45-1.028-.645-1.545-.075-.18-.135-.368-.2-.555s-.135-.4-.2-.6c-.09-.27-.173-.548-.248-.825a22.22,22.22,0,0,1-.863-6.144c0-18.289,22.25-33.119,49.683-33.119s49.683,14.831,49.683,33.119a22.5,22.5,0,0,1-.855,6.144C266.806,670.557,266.724,670.834,266.634,671.1Z" transform="translate(-160.367 -625.675)" fill="#fff" stroke="#000" stroke-linecap="round" stroke-linejoin="round" stroke-miterlimit="10" stroke-width="2.849"/><path d="M172.529,686.237c.064.2.133.4.2.6C172.658,686.639,172.593,686.44,172.529,686.237Z" transform="translate(-163.405 -640.806)" fill="#fff" stroke="#000" stroke-linecap="round" stroke-linejoin="round" stroke-miterlimit="10" stroke-width="2.849"/><path d="M267.163,689.768c-.2.277-.406.554-.617.827-.089.116-.18.235-.273.351s-.2.258-.309.383c-.135.163-.269.323-.408.486-.281.332-.578.66-.878.988-.152.167-.309.328-.465.5s-.311.313-.464.472-.323.317-.485.476c-.563.544-1.151,1.081-1.764,1.6-.195.164-.389.33-.588.491-.222.179-.449.359-.675.541a46.533,46.533,0,0,1-6.887,4.457c-.245.129-.494.26-.744.389-.278.142-.559.281-.844.425-1.138.554-2.306,1.081-3.517,1.569-.267.113-.536.218-.809.324q-1.5.59-3.067,1.1c-.265.089-.531.175-.8.258-.207.065-.416.131-.624.194s-.425.129-.641.19c-.533.157-1.068.3-1.608.449-.186.05-.366.1-.55.142-.51.135-1.026.26-1.545.374-.245.062-.484.116-.73.167-.156.036-.313.071-.476.1-.467.1-.941.194-1.417.285-.851.163-1.716.311-2.583.44-.358.055-.713.106-1.073.152a.285.285,0,0,1-.061.008c-.337.047-.679.093-1.016.129q-2.621.321-5.322.449c-.273.015-.542.023-.815.034s-.566.017-.848.028l-.772.013c-.378,0-.757.01-1.136.01s-.759-.007-1.138-.01l-.77-.013c-.284-.01-.569-.02-.851-.028s-.545-.019-.814-.034q-1.7-.082-3.364-.239c-.254-.019-.5-.046-.753-.07-.063-.008-.133-.014-.2-.023-.336-.037-.668-.073-1.007-.116s-.679-.083-1.015-.129a.257.257,0,0,1-.062-.008c-.359-.047-.715-.1-1.073-.152l-.894-.14c-.588-.1-1.166-.2-1.737-.309-.176-.038-.358-.07-.533-.106-.281-.057-.558-.112-.839-.171l-.508-.113c-.233-.05-.464-.1-.694-.156-.467-.106-.929-.216-1.39-.332s-.938-.245-1.4-.374c-.3-.083-.611-.167-.911-.258-.216-.061-.43-.124-.641-.19s-.421-.129-.624-.194c-.23-.074-.461-.146-.687-.22-.658-.214-1.3-.436-1.938-.671-.25-.093-.5-.185-.753-.281-.2-.074-.406-.152-.6-.233q-1.574-.616-3.063-1.307c-.2-.091-.4-.188-.6-.281s-.41-.2-.614-.3c-.26-.129-.522-.263-.776-.392s-.5-.26-.745-.389a46.338,46.338,0,0,1-6.887-4.457c-.227-.182-.452-.362-.674-.541-.2-.161-.394-.328-.588-.491-.614-.52-1.2-1.057-1.764-1.6-.161-.159-.323-.315-.485-.476s-.311-.316-.463-.472-.314-.328-.466-.5c-.3-.328-.6-.656-.878-.988-.139-.163-.272-.323-.406-.486-.108-.125-.209-.254-.311-.383s-.184-.23-.272-.351c-.212-.273-.419-.55-.618-.827,8.006-11.124,25.063-18.8,44.809-18.8S259.153,678.644,267.163,689.768Z" transform="translate(-164.659 -636.991)" fill="#fff" stroke="#000" stroke-linecap="round" stroke-linejoin="round" stroke-miterlimit="10" stroke-width="2.849"/><path d="M301.962,686.237c-.063.2-.129.4-.2.6C301.83,686.639,301.9,686.44,301.962,686.237Z" transform="translate(-195.693 -640.806)" fill="#fff" stroke="#000" stroke-linecap="round" stroke-linejoin="round" stroke-miterlimit="10" stroke-width="2.849"/><path d="M270.412,665.914a22.5,22.5,0,0,1-.855,6.144c-.083.278-.165.555-.255.825-.06.2-.128.405-.2.6-.06.188-.128.375-.2.555-.188.518-.405,1.035-.638,1.545-.105.233-.21.45-.323.675,0,.007-.008.015-.008.022-.112.225-.225.45-.345.668-.105.195-.21.39-.315.578-.06.1-.113.2-.165.292-.113.188-.225.375-.33.563-.083.127-.165.255-.248.39s-.18.278-.263.413a1.314,1.314,0,0,1-.12.165c-.09.135-.173.27-.263.4-.113.165-.225.33-.345.48-8-11.117-25.063-18.8-44.807-18.8s-36.8,7.682-44.807,18.8c-.113-.15-.233-.315-.338-.48-.09-.128-.18-.263-.27-.4-.038-.052-.075-.1-.113-.165-.09-.135-.173-.278-.263-.413-.2-.315-.39-.63-.578-.953-.06-.1-.113-.195-.165-.292-.105-.187-.218-.383-.315-.578-.12-.218-.24-.443-.345-.668,0-.008-.007-.015-.015-.022-.105-.225-.218-.443-.315-.675-.24-.51-.45-1.028-.645-1.545-.075-.18-.135-.368-.2-.555s-.135-.4-.2-.6c-.09-.27-.173-.548-.248-.825a22.221,22.221,0,0,1-.863-6.144c0-18.289,22.25-33.119,49.683-33.119S270.412,647.625,270.412,665.914Z" transform="translate(-163.035 -627.454)" fill="#c8ede9" stroke="#000" stroke-linecap="round" stroke-linejoin="round" stroke-miterlimit="10" stroke-width="2.849"/><path d="M172.529,686.237c.064.2.133.4.2.6C172.658,686.639,172.593,686.44,172.529,686.237Z" transform="translate(-163.405 -640.806)" fill="#fff" stroke="#000" stroke-linecap="round" stroke-linejoin="round" stroke-miterlimit="10" stroke-width="2.453"/><path d="M267.163,689.768c-.2.277-.406.554-.617.827-.089.116-.18.235-.273.351s-.2.258-.309.383c-.135.163-.269.323-.408.486-.281.332-.578.66-.878.988-.152.167-.309.328-.465.5s-.311.313-.464.472-.323.317-.485.476c-.563.544-1.151,1.081-1.764,1.6-.195.164-.389.33-.588.491-.222.179-.449.359-.675.541a46.533,46.533,0,0,1-6.887,4.457c-.245.129-.494.26-.744.389-.278.142-.559.281-.844.425-1.138.554-2.306,1.081-3.517,1.569-.267.113-.536.218-.809.324q-1.5.59-3.067,1.1c-.265.089-.531.175-.8.258-.207.065-.416.131-.624.194s-.425.129-.641.19c-.533.157-1.068.3-1.608.449-.186.05-.366.1-.55.142-.51.135-1.026.26-1.545.374-.245.062-.484.116-.73.167-.156.036-.313.071-.476.1-.467.1-.941.194-1.417.285-.851.163-1.716.311-2.583.44-.358.055-.713.106-1.073.152a.285.285,0,0,1-.061.008c-.337.047-.679.093-1.016.129q-2.621.321-5.322.449c-.273.015-.542.023-.815.034s-.566.017-.848.028l-.772.013c-.378,0-.757.01-1.136.01s-.759-.007-1.138-.01l-.77-.013c-.284-.01-.569-.02-.851-.028s-.545-.019-.814-.034q-1.7-.082-3.364-.239c-.254-.019-.5-.046-.753-.07-.063-.008-.133-.014-.2-.023-.336-.037-.668-.073-1.007-.116s-.679-.083-1.015-.129a.257.257,0,0,1-.062-.008c-.359-.047-.715-.1-1.073-.152l-.894-.14c-.588-.1-1.166-.2-1.737-.309-.176-.038-.358-.07-.533-.106-.281-.057-.558-.112-.839-.171l-.508-.113c-.233-.05-.464-.1-.694-.156-.467-.106-.929-.216-1.39-.332s-.938-.245-1.4-.374c-.3-.083-.611-.167-.911-.258-.216-.061-.43-.124-.641-.19s-.421-.129-.624-.194c-.23-.074-.461-.146-.687-.22-.658-.214-1.3-.436-1.938-.671-.25-.093-.5-.185-.753-.281-.2-.074-.406-.152-.6-.233q-1.574-.616-3.063-1.307c-.2-.091-.4-.188-.6-.281s-.41-.2-.614-.3c-.26-.129-.522-.263-.776-.392s-.5-.26-.745-.389a46.338,46.338,0,0,1-6.887-4.457c-.227-.182-.452-.362-.674-.541-.2-.161-.394-.328-.588-.491-.614-.52-1.2-1.057-1.764-1.6-.161-.159-.323-.315-.485-.476s-.311-.316-.463-.472-.314-.328-.466-.5c-.3-.328-.6-.656-.878-.988-.139-.163-.272-.323-.406-.486-.108-.125-.209-.254-.311-.383s-.184-.23-.272-.351c-.212-.273-.419-.55-.618-.827,8.006-11.124,25.063-18.8,44.809-18.8S259.153,678.644,267.163,689.768Z" transform="translate(-164.659 -636.991)" fill="#fff" stroke="#000" stroke-linecap="round" stroke-linejoin="round" stroke-miterlimit="10" stroke-width="2.453"/><path d="M301.962,686.237c-.063.2-.129.4-.2.6C301.83,686.639,301.9,686.44,301.962,686.237Z" transform="translate(-195.693 -640.806)" fill="#fff" stroke="#000" stroke-linecap="round" stroke-linejoin="round" stroke-miterlimit="10" stroke-width="2.453"/><path d="M267.163,689.768c-.2.277-.406.554-.617.827-.089.116-.18.235-.273.351s-.2.258-.309.383c-.135.163-.269.323-.408.486-.281.332-.578.66-.878.988-.152.167-.309.328-.465.5s-.311.313-.464.472-.323.317-.485.476c-.563.544-1.151,1.081-1.764,1.6-.195.164-.389.33-.588.491-.222.179-.449.359-.675.541a46.533,46.533,0,0,1-6.887,4.457c-.245.129-.494.26-.744.389-.278.142-.559.281-.844.425-1.138.554-2.306,1.081-3.517,1.569-.267.113-.536.218-.809.324q-1.5.59-3.067,1.1c-.265.089-.531.175-.8.258-.207.065-.416.131-.624.194s-.425.129-.641.19c-.533.157-1.068.3-1.608.449-.186.05-.366.1-.55.142-.51.135-1.026.26-1.545.374-.245.062-.484.116-.73.167-.156.036-.313.071-.476.1-.467.1-.941.194-1.417.285-.851.163-1.716.311-2.583.44-.358.055-.713.106-1.073.152a.285.285,0,0,1-.061.008c-.337.047-.679.093-1.016.129q-2.621.321-5.322.449c-.273.015-.542.023-.815.034s-.566.017-.848.028l-.772.013c-.378,0-.757.01-1.136.01s-.759-.007-1.138-.01l-.77-.013c-.284-.01-.569-.02-.851-.028s-.545-.019-.814-.034q-1.7-.082-3.364-.239c-.254-.019-.5-.046-.753-.07-.063-.008-.133-.014-.2-.023-.336-.037-.668-.073-1.007-.116s-.679-.083-1.015-.129a.257.257,0,0,1-.062-.008c-.359-.047-.715-.1-1.073-.152l-.894-.14c-.588-.1-1.166-.2-1.737-.309-.176-.038-.358-.07-.533-.106-.281-.057-.558-.112-.839-.171l-.508-.113c-.233-.05-.464-.1-.694-.156-.467-.106-.929-.216-1.39-.332s-.938-.245-1.4-.374c-.3-.083-.611-.167-.911-.258-.216-.061-.43-.124-.641-.19s-.421-.129-.624-.194c-.23-.074-.461-.146-.687-.22-.658-.214-1.3-.436-1.938-.671-.25-.093-.5-.185-.753-.281-.2-.074-.406-.152-.6-.233q-1.574-.616-3.063-1.307c-.2-.091-.4-.188-.6-.281s-.41-.2-.614-.3c-.26-.129-.522-.263-.776-.392s-.5-.26-.745-.389a46.338,46.338,0,0,1-6.887-4.457c-.227-.182-.452-.362-.674-.541-.2-.161-.394-.328-.588-.491-.614-.52-1.2-1.057-1.764-1.6-.161-.159-.323-.315-.485-.476s-.311-.316-.463-.472-.314-.328-.466-.5c-.3-.328-.6-.656-.878-.988-.139-.163-.272-.323-.406-.486-.108-.125-.209-.254-.311-.383s-.184-.23-.272-.351c-.212-.273-.419-.55-.618-.827,8.006-11.124,25.063-18.8,44.809-18.8S259.153,678.644,267.163,689.768Z" transform="translate(-164.659 -636.991)" fill="#f1d624" stroke="#000" stroke-linecap="round" stroke-linejoin="round" stroke-miterlimit="10" stroke-width="2"/><path d="M211.642,676.946" transform="translate(-173.178 -638.485)" fill="#fff" stroke="#000" stroke-linecap="round" stroke-miterlimit="10" stroke-width="2.453"/><path d="M180,754.7a13.383,13.383,0,0,1,1.506,4.236,20.384,20.384,0,0,0,1.659,4.2" transform="translate(-165.272 -657.911)" fill="none" stroke="#000" stroke-linecap="round" stroke-linejoin="round" stroke-miterlimit="10" stroke-width="0.25"/><path d="M182.109,759.316l3.111-.659a4.268,4.268,0,0,0,1.336-.441" transform="translate(-165.799 -658.79)" fill="none" stroke="#000" stroke-linecap="round" stroke-linejoin="round" stroke-miterlimit="10" stroke-width="0.25"/><path d="M187.2,752.97a7.752,7.752,0,0,1,.248,1.832,10.684,10.684,0,0,0,1.5,3.007,6.4,6.4,0,0,1,.636,3.941l-.038-.3" transform="translate(-167.071 -657.479)" fill="none" stroke="#000" stroke-linecap="round" stroke-linejoin="round" stroke-miterlimit="10" stroke-width="0.25"/><path d="M194.534,756.4c.525.2,1.067-.224,1.47-.618a3.367,3.367,0,0,0,.686-.835,1.136,1.136,0,0,0,.042-1.042,1.075,1.075,0,0,0-1.006-.5,2.121,2.121,0,0,0-1.081.441,4.257,4.257,0,0,0,.348,7.151,2.9,2.9,0,0,0,1.857.419,1.776,1.776,0,0,0,1.437-1.15" transform="translate(-168.486 -657.588)" fill="none" stroke="#000" stroke-linecap="round" stroke-linejoin="round" stroke-miterlimit="10" stroke-width="0.25"/><path d="M211.232,758.329a16.433,16.433,0,0,1,1.667-.74,1.7,1.7,0,0,0,1.065-1.367A1.319,1.319,0,0,0,212.69,755a2.065,2.065,0,0,0-1.66.87,2.917,2.917,0,0,0-.6,1.756,4.679,4.679,0,0,0,1.9,3.354,2.7,2.7,0,0,0,1.135.659,2.611,2.611,0,0,0,1.263-.11,8.691,8.691,0,0,0,3.889-2.343" transform="translate(-172.875 -657.987)" fill="none" stroke="#000" stroke-linecap="round" stroke-linejoin="round" stroke-miterlimit="10" stroke-width="0.25"/><path d="M181.633,778.409a32.885,32.885,0,0,0,1.827,7.484,9.683,9.683,0,0,0,1.407,2.711.34.34,0,0,0,.061-.293" transform="translate(-165.68 -663.835)" fill="none" stroke="#000" stroke-linecap="round" stroke-linejoin="round" stroke-miterlimit="10" stroke-width="0.25"/><path d="M182.139,778.372a1.9,1.9,0,0,1,1.783-1.749A3.715,3.715,0,0,1,186.4,778a1.086,1.086,0,0,1,.271.351.993.993,0,0,1-.209.874,5.136,5.136,0,0,1-1.68,1.593,5.035,5.035,0,0,0-1.92,1.342c-.066.1-.075.3.049.3" transform="translate(-165.807 -663.389)" fill="none" stroke="#000" stroke-linecap="round" stroke-linejoin="round" stroke-miterlimit="10" stroke-width="0.25"/><path d="M195.079,784.421a2.984,2.984,0,0,0-4.945,1.99,2.016,2.016,0,0,0,1.154,2.109,2.221,2.221,0,0,0,1.24-.007,4.658,4.658,0,0,0,3.115-2.639,9.182,9.182,0,0,0,.556-2.471,5.84,5.84,0,0,0,.92,3.55" transform="translate(-167.802 -665.083)" fill="none" stroke="#000" stroke-linecap="round" stroke-linejoin="round" stroke-miterlimit="10" stroke-width="0.25"/><path d="M203.13,779.782c.794,1.965.686,4.238,1.676,6.113.031.059.115.122.15.065" transform="translate(-171.051 -664.178)" fill="none" stroke="#000" stroke-linecap="round" stroke-linejoin="round" stroke-miterlimit="10" stroke-width="0.25"/><path d="M206.91,780.045a19.934,19.934,0,0,0-1.494,2.245.959.959,0,0,0-.163.458.881.881,0,0,0,.37.614,4.136,4.136,0,0,0,1.317.771,2.105,2.105,0,0,1,.926.468" transform="translate(-171.582 -664.244)" fill="none" stroke="#000" stroke-linecap="round" stroke-linejoin="round" stroke-miterlimit="10" stroke-width="0.25"/><path d="M211.382,778.906c1.031,1.319.405,3.459,1.521,4.706a1.153,1.153,0,0,0,1.314.389,1.5,1.5,0,0,0,.593-.806,6.894,6.894,0,0,0,.6-4.9c-.07-.2-.058-.525.148-.491a.27.27,0,0,1,.12.065c1.332,1.07,1.067,3.331,2.333,4.478" transform="translate(-173.113 -663.683)" fill="none" stroke="#000" stroke-linecap="round" stroke-linejoin="round" stroke-miterlimit="10" stroke-width="0.25"/><path d="M227.05,774.3l3.016,7.082a14.563,14.563,0,0,0-2.328-6.235,2.183,2.183,0,0,0-1.409-1.122,1.553,1.553,0,0,0-1.541,1.46,3.575,3.575,0,0,0,.708,2.206,2.1,2.1,0,0,0,1.148,1.02c.51.124,1.152-.291,1.047-.8a7.764,7.764,0,0,0-.9,1.554,28.611,28.611,0,0,0-1.871,4.582" transform="translate(-176.46 -662.738)" fill="none" stroke="#000" stroke-linecap="round" stroke-linejoin="round" stroke-miterlimit="10" stroke-width="0.25"/></g><g transform="translate(14093.527 1435.773)"><path d="M270.846,840.9c4.77-2.965,9.383-6.512,14.153-9.477q3.219,2.095,6.445,4.186.076,9.676.157,19.353v0q-5.187-3.449-10.379-6.892c-3.458-2.293-6.916-4.882-10.377-7.173h0" transform="translate(-270.846 -752.772)" fill="#fff" stroke="#000" stroke-linecap="round" stroke-linejoin="round" stroke-miterlimit="10" stroke-width="1.128"/><path d="M271.343,816.736c3.481,2.07,6.943,4.114,10.423,6.187s6.964,4.15,10.443,6.227v0q-.08-8.745-.159-17.488-.222-24.274-.444-48.537a5.9,5.9,0,0,0-2.76-4.94l-17.459-11.1-.1-9.726,14.281,8.446c9.735,6.423,12.725,9.126,14.394,13.235a18.185,18.185,0,0,1,1.267,7.56q.01,2.193.023,4.4v.013q.014,2.19.028,4.394.016,2.252.034,4.518.029,3.36.059,6.743.019,2.254.043,4.515t.044,4.525c.133,13.288.281,26.66.355,39.633q.007.957.011,1.91l.006,1.169a9.92,9.92,0,0,1-7.246,2.861,6.956,6.956,0,0,1-3.729-1.35c-4.806-3.295-9-5.848-13.872-9.05-1.493-.982-4.163-2.6-5.656-3.583-.212-3.465.231-7.1.018-10.56" transform="translate(-271.267 -728.534)" fill="#96bcb7" stroke="#000" stroke-linecap="round" stroke-linejoin="round" stroke-miterlimit="10" stroke-width="1.128"/><path d="M272.539,733.806c5.166-2.925,10.711-5.85,15.932-8.665a97.157,97.157,0,0,1,17.4,8.4c8.067,4.949,10.377,8.038,11.708,10.613a21.007,21.007,0,0,1,2.214,7.763q.159,35.723.317,71.444L302,835.774l-.006-1.175c0-.638-.007-1.28-.011-1.922q-.017-3.337-.044-6.683c-.08-10.93-.2-22.075-.311-33.166q-.026-2.278-.045-4.55t-.042-4.539q-.031-3.4-.059-6.78-.016-2.278-.034-4.544-.016-2.211-.028-4.418v-.012q-.012-2.215-.023-4.425a18.377,18.377,0,0,0-1.267-7.6c-1.668-4.132-4.66-6.85-14.394-13.308-3.287-2.18-8.321-5.9-13.194-8.845" transform="translate(-272.539 -725.14)" fill="#c8ede9" stroke="#000" stroke-linecap="round" stroke-linejoin="round" stroke-miterlimit="10" stroke-width="1.38"/></g></g></g></svg>